<?xml version="1.0" standalone="no"?>
<!DOCTYPE svg PUBLIC "-//W3C//DTD SVG 20010904//EN"
 "http://www.w3.org/TR/2001/REC-SVG-20010904/DTD/svg10.dtd">
<svg version="1.0" xmlns="http://www.w3.org/2000/svg"
 width="709.000000pt" height="709.000000pt" viewBox="0 0 709.000000 709.000000"
 preserveAspectRatio="xMidYMid meet">
<metadata>
Created by potrace 1.11, written by Peter Selinger 2001-2013
</metadata>
<g transform="translate(0.000000,709.000000) scale(0.100000,-0.100000)"
fill="#000000" stroke="none">
<path d="M2727 5332 c-20 -4 -19 3 -21 -129 0 -61 3 -104 9 -106 6 -2 59 -3
119 -3 l109 1 1 118 c1 97 -2 117 -14 118 -68 3 -190 3 -203 1z"/>
<path d="M3720 5029 c0 -3 -10 -5 -22 -4 -13 1 -27 0 -33 -4 -5 -3 -21 -6 -35
-7 -14 -1 -26 -3 -27 -4 -2 -1 -12 -4 -23 -5 -11 -1 -21 -3 -22 -5 -2 -1 -10
-3 -18 -5 -8 -3 -22 -6 -30 -8 -15 -4 -39 -13 -75 -26 -11 -5 -23 -9 -27 -11
-4 -1 -40 -18 -80 -39 -89 -44 -168 -97 -227 -151 -25 -22 -48 -40 -53 -40 -5
0 -8 -3 -6 -7 2 -5 -20 -32 -48 -61 l-51 -53 1 168 c1 92 -1 179 -4 192 -6 24
-8 25 -114 24 -63 0 -111 -5 -115 -11 -3 -5 -6 -373 -5 -818 l1 -807 -51 55
c-28 30 -71 79 -96 108 -57 67 -64 74 -130 150 -84 96 -89 101 -133 154 -47
55 -114 132 -137 156 -8 9 -40 45 -70 80 -30 36 -59 70 -65 76 -5 6 -32 37
-60 69 -66 77 -206 237 -219 251 -6 6 -27 30 -46 54 -19 24 -40 48 -45 54 -9
9 -75 85 -166 189 -22 26 -24 38 -25 126 0 54 -3 102 -6 107 -7 11 -215 10
-226 0 -4 -4 -7 -468 -7 -1030 0 -1143 -7 -1050 72 -951 71 89 123 210 139
324 2 19 6 37 8 40 12 18 20 282 20 643 l0 407 43 -42 c24 -23 43 -46 43 -51
0 -5 10 -18 23 -30 13 -11 50 -52 83 -91 32 -38 66 -76 74 -85 8 -8 55 -62
105 -120 49 -58 93 -107 96 -110 3 -3 37 -41 75 -85 103 -119 118 -137 129
-149 6 -6 39 -45 75 -86 36 -41 72 -81 80 -90 13 -13 52 -58 133 -154 10 -11
28 -32 40 -46 12 -14 39 -45 61 -70 41 -47 124 -143 166 -190 14 -15 50 -56
80 -91 30 -35 66 -76 80 -92 17 -19 37 -30 58 -32 37 -3 34 -25 34 211 l1 171
91 -92 c86 -86 211 -185 234 -185 6 0 12 -3 14 -8 4 -10 177 -89 209 -96 13
-3 49 -12 79 -20 30 -8 87 -19 125 -24 71 -10 309 -8 355 2 14 3 41 9 60 12
150 26 355 125 484 234 45 37 146 143 146 152 0 4 6 8 13 8 13 0 15 -48 3 -68
-4 -7 -4 -12 1 -12 4 0 7 -21 6 -47 -4 -90 -4 -108 0 -135 2 -16 1 -28 -4 -28
-4 0 -4 -14 1 -30 5 -17 9 -34 9 -37 1 -8 207 -12 227 -6 7 3 10 239 10 808
-1 443 0 805 1 805 6 0 61 -61 168 -185 28 -32 69 -79 92 -104 23 -25 43 -52
43 -59 0 -7 5 -10 10 -7 6 3 13 -1 17 -11 3 -9 18 -29 32 -43 14 -15 51 -56
81 -91 30 -35 64 -74 75 -86 11 -13 38 -44 60 -70 22 -25 51 -58 65 -74 14
-15 50 -56 80 -90 30 -35 60 -69 67 -76 7 -7 13 -15 13 -17 0 -3 15 -21 33
-39 34 -37 52 -58 132 -153 28 -32 57 -66 65 -75 8 -9 40 -45 70 -80 30 -35
64 -73 75 -86 18 -20 47 -53 130 -149 98 -115 106 -122 128 -121 12 1 27 4 32
8 11 7 14 2162 3 2174 -8 7 -217 9 -225 1 -3 -3 -5 -368 -5 -811 0 -688 -2
-806 -14 -806 -8 0 -14 3 -14 8 0 4 -14 23 -31 42 -17 19 -49 57 -72 84 -23
27 -63 72 -89 100 -26 28 -48 54 -48 57 0 4 -12 20 -27 37 -16 16 -48 53 -73
81 -25 29 -56 65 -70 81 -31 35 -129 146 -153 174 -47 54 -98 114 -122 141
-14 17 -54 63 -88 103 -34 39 -65 72 -69 72 -4 0 -8 7 -8 15 0 7 -6 18 -14 22
-7 4 -32 31 -56 58 -23 28 -66 77 -94 109 -28 32 -59 68 -69 80 -63 74 -116
134 -139 159 -16 16 -28 31 -28 33 0 4 -23 30 -126 140 -19 20 -38 31 -50 29
-10 -2 -22 -4 -25 -4 -5 -1 -8 -36 -10 -113 0 -7 2 -30 3 -50 2 -21 -1 -40 -7
-43 -7 -3 -7 -7 0 -10 12 -6 11 -67 0 -86 -5 -7 -4 -10 1 -6 5 3 9 -10 9 -28
0 -22 -4 -31 -12 -28 -7 3 -13 9 -13 13 0 17 -154 163 -207 196 -15 10 -36 25
-46 33 -10 8 -25 16 -33 17 -8 1 -21 8 -29 14 -21 18 -87 50 -102 50 -7 0 -13
5 -13 12 0 6 -3 8 -6 5 -4 -3 -15 -2 -26 4 -18 10 -105 35 -152 44 -12 2 -21
4 -21 5 0 2 -39 8 -88 13 -20 2 -40 7 -43 10 -4 4 -15 2 -25 -4 -11 -5 -19 -6
-19 -1 0 4 -47 8 -105 7 -58 0 -105 -3 -105 -6z m275 -233 c11 -3 20 -5 20 -6
0 -1 11 -3 25 -6 14 -2 36 -7 50 -11 14 -3 27 -7 30 -7 38 -7 240 -106 240
-118 0 -4 5 -8 12 -8 25 0 217 -182 218 -206 0 -7 7 -15 16 -18 8 -3 12 -10 9
-16 -3 -5 -2 -10 3 -10 5 0 15 -15 23 -32 7 -18 16 -35 19 -38 6 -5 53 -116
56 -132 1 -5 2 -9 3 -10 2 -2 4 -12 6 -23 2 -11 10 -47 18 -80 8 -33 13 -68
11 -77 -1 -10 1 -18 6 -18 4 0 5 -12 3 -27 -5 -35 -5 -41 -3 -78 3 -73 -17
-206 -44 -283 -8 -22 -12 -43 -9 -46 4 -3 1 -6 -5 -6 -7 0 -12 -5 -12 -11 0
-41 -142 -263 -176 -276 -8 -3 -14 -11 -14 -19 0 -8 -3 -14 -8 -14 -4 0 -19
-11 -33 -24 -43 -40 -144 -105 -205 -132 -72 -32 -164 -65 -164 -58 0 3 -8 1
-17 -5 -53 -27 -295 -32 -410 -7 -40 8 -111 30 -158 49 -82 34 -212 115 -228
143 -4 8 -13 14 -20 15 -10 0 -62 56 -132 142 -53 64 -139 250 -150 322 -1 11
-7 43 -11 70 -14 79 -9 263 9 348 19 88 68 218 97 259 11 15 20 30 20 34 0 13
65 95 120 153 51 52 161 141 176 141 3 0 19 9 35 21 16 11 35 22 42 23 7 1 22
8 35 15 27 14 98 41 127 47 11 2 31 6 45 9 14 3 43 8 65 11 22 4 41 7 43 9 4
3 194 -5 217 -9z"/>
<path d="M22 4979 c-16 -6 -17 -59 -16 -720 1 -643 6 -878 19 -950 49 -265
201 -441 452 -523 103 -34 186 -45 314 -41 85 2 123 9 196 33 80 27 182 82
184 100 5 43 2 337 -3 345 -6 9 -8 8 -8 -1 0 -24 -115 -162 -134 -162 -4 0
-20 -10 -36 -21 -77 -57 -246 -82 -366 -54 -139 32 -276 130 -323 231 -52 110
-53 129 -54 977 l-1 787 -36 1 c-146 4 -173 3 -188 -2z"/>
<path d="M6866 4892 c-4 -3 -17 -7 -29 -9 -12 -2 -23 -8 -25 -13 -2 -6 -8 -10
-14 -10 -12 0 -28 -16 -53 -55 -24 -37 -25 -127 -2 -170 22 -40 61 -76 87 -78
11 -1 20 -5 20 -10 0 -5 27 -7 59 -5 67 5 115 34 149 91 22 39 25 138 4 159
-7 7 -12 17 -12 22 0 13 -61 66 -77 67 -16 2 -32 6 -35 9 -7 5 -67 8 -72 2z
m95 -31 c119 -47 126 -226 11 -284 -38 -18 -121 -14 -155 8 -90 59 -93 207 -4
260 54 34 94 38 148 16z"/>
<path d="M6851 4751 c1 -39 0 -73 -3 -76 -3 -3 -3 -17 0 -30 5 -28 27 -33 36
-10 3 8 1 15 -3 15 -11 0 1 50 12 50 4 0 11 0 15 0 12 0 34 -49 27 -60 -4 -7
16 -20 31 -20 7 0 -1 41 -14 73 -10 23 -9 31 3 43 35 36 2 79 -63 83 l-43 3 2
-71z m73 33 c21 -20 20 -27 -3 -48 -14 -13 -20 -14 -28 -4 -18 23 -22 45 -10
57 15 15 23 14 41 -5z"/>
<path d="M5563 2358 c-27 -13 -35 -43 -21 -74 29 -64 132 -23 107 43 -7 21
-38 44 -56 42 -4 0 -18 -5 -30 -11z"/>
<path d="M223 2352 c-13 -2 -23 -8 -23 -13 0 -5 -6 -9 -12 -9 -29 -1 -53 -54
-53 -117 0 -71 4 -76 113 -165 108 -89 124 -140 55 -177 -46 -24 -79 -8 -125
58 l-17 23 -35 -22 c-20 -12 -36 -24 -36 -27 0 -3 10 -19 22 -36 54 -78 121
-108 195 -89 60 16 89 39 113 88 37 74 13 145 -71 216 -112 94 -129 111 -129
132 0 31 13 46 43 52 20 3 36 -4 66 -32 l40 -35 30 22 c17 13 31 28 31 35 0
22 -87 93 -122 98 -33 5 -43 5 -85 -2z"/>
<path d="M691 2344 c-83 -30 -136 -75 -174 -147 -32 -62 -32 -203 2 -267 52
-97 139 -151 253 -156 99 -4 180 26 242 90 l28 30 -32 29 -31 28 -35 -31 c-47
-40 -97 -60 -154 -60 -129 0 -221 102 -207 229 6 52 16 81 27 81 4 0 10 8 13
19 2 10 26 32 53 47 86 51 210 36 269 -32 26 -30 33 -30 70 0 l30 24 -30 32
c-35 37 -89 74 -125 84 -58 16 -155 16 -199 0z"/>
<path d="M2849 2350 c-10 -6 -14 -27 -13 -74 0 -60 -2 -66 -20 -67 -39 -2 -46
-4 -46 -11 -1 -67 -1 -67 33 -70 l32 -3 0 -162 c0 -89 4 -165 8 -170 5 -4 24
-8 43 -8 24 -1 34 3 35 14 1 9 2 86 3 171 l1 155 25 2 c14 0 30 1 36 2 7 1 15
8 18 17 4 10 2 13 -6 8 -7 -5 -8 -3 -3 7 17 27 13 50 -9 48 -62 -4 -62 -4 -61
71 0 56 -3 70 -15 71 -8 0 -22 2 -31 4 -8 1 -22 -1 -30 -5z"/>
<path d="M3532 2074 l3 -288 40 0 40 -1 0 285 0 285 -43 3 -42 3 2 -287z"/>
<path d="M3948 2343 c-42 -21 -73 -71 -74 -122 -2 -66 16 -91 139 -191 61 -49
78 -77 72 -112 -6 -27 -42 -57 -69 -58 -24 0 -86 41 -86 56 0 24 -27 36 -51
22 -45 -25 -47 -31 -31 -58 29 -46 57 -73 97 -91 50 -23 92 -24 136 -3 31 15
88 67 90 83 0 3 3 15 5 26 21 82 -20 147 -151 244 -58 43 -72 74 -49 108 13
21 21 24 47 19 18 -4 43 -20 57 -36 14 -17 28 -30 31 -30 4 0 21 12 38 28 l32
27 -36 38 c-60 64 -131 82 -197 50z"/>
<path d="M4719 2358 c-1 -2 -3 -130 -3 -285 -1 -190 2 -283 9 -284 52 -6 74
-2 78 12 3 9 1 23 -3 30 -5 7 -4 24 2 38 6 17 6 27 -1 29 -6 2 -8 9 -4 15 10
17 11 47 1 47 -5 0 -6 6 -2 12 11 18 12 48 2 48 -5 0 -6 6 -2 12 11 18 12 48
2 48 -5 0 -6 6 -2 12 12 19 12 48 0 48 -6 0 -6 4 1 11 7 7 8 20 3 34 -4 12 -4
28 0 35 5 8 4 22 -1 32 -5 10 -6 18 -1 18 10 0 9 30 -2 48 -4 7 -2 12 5 12 8
0 8 4 -1 15 -10 12 -76 22 -81 13z"/>
<path d="M5369 2351 c-11 -4 -16 -22 -16 -63 -1 -32 -1 -62 -2 -68 -1 -5 -16
-10 -33 -10 -31 0 -33 -2 -33 -37 1 -35 3 -38 35 -43 l34 -5 1 -160 c0 -88 3
-165 8 -172 4 -6 20 -10 35 -8 15 2 32 4 37 4 13 1 14 61 1 61 -5 0 -4 6 1 13
5 6 8 23 6 37 -2 14 -3 39 -2 55 1 17 1 42 0 58 -1 38 -1 55 0 70 1 6 0 19 -2
27 -3 11 5 15 31 17 40 2 66 29 49 50 -9 10 -8 13 1 13 8 0 10 3 6 8 -9 8 -14
9 -55 11 -28 1 -29 3 -26 46 1 27 -1 42 -7 39 -6 -4 -6 1 0 13 6 10 7 25 3 32
-9 14 -49 21 -72 12z"/>
<path d="M1159 2343 c0 -5 -2 -15 -4 -23 -2 -14 -9 -54 -20 -120 -2 -14 -6
-47 -10 -75 -3 -27 -10 -77 -15 -110 -21 -135 -24 -162 -24 -195 -1 -33 1 -34
36 -35 41 -1 42 0 53 75 4 25 9 59 11 75 8 46 16 117 17 143 1 12 5 22 9 22 5
0 143 -267 163 -317 0 -1 10 0 21 3 15 4 43 51 98 165 43 88 80 159 81 157 3
-3 14 -83 20 -138 2 -25 13 -97 20 -135 2 -11 4 -27 4 -35 1 -11 11 -15 34
-14 57 2 58 3 52 32 -5 33 -42 289 -50 351 -10 81 -25 161 -31 173 -14 23 -46
-26 -130 -198 -53 -107 -97 -194 -100 -194 -2 0 -47 87 -100 193 -53 105 -102
195 -108 199 -14 10 -26 10 -27 1z"/>
<path d="M1966 2340 c-1 -3 -4 -22 -5 -42 -2 -41 -7 -38 79 -42 l35 -1 1 -76
c0 -42 4 -83 7 -93 4 -9 3 -16 -1 -16 -9 0 -8 -263 1 -277 4 -6 23 -9 44 -8
l38 1 3 238 2 237 39 -4 c62 -6 81 6 78 50 l-2 37 -158 1 c-87 0 -160 -2 -161
-5z"/>
<path d="M2431 2202 c-111 -53 -162 -184 -114 -293 39 -87 107 -131 204 -132
123 0 212 92 213 218 1 94 -45 168 -124 203 -46 21 -141 23 -179 4z m175 -106
c32 -33 44 -61 44 -98 -2 -105 -111 -171 -197 -118 -77 47 -89 136 -29 213 38
49 137 50 182 3z"/>
<path d="M3171 2208 c-18 -5 -53 -27 -76 -49 -87 -81 -94 -229 -15 -310 83
-85 164 -94 294 -31 5 3 6 -3 3 -12 -7 -17 -5 -18 28 -19 58 -1 61 1 58 43 -1
22 -5 45 -9 52 -4 6 -3 9 2 5 10 -6 10 236 -1 252 -3 6 -2 11 4 11 5 0 8 8 6
18 -2 9 -4 22 -4 27 -1 6 -12 12 -26 13 -13 1 -28 2 -32 3 -23 4 -31 -3 -25
-23 l5 -22 -36 23 c-41 25 -121 34 -176 19z m131 -87 c62 -23 93 -123 60 -190
-62 -129 -258 -68 -248 77 7 96 95 149 188 113z"/>
<path d="M4385 2209 c-41 -10 -124 -73 -129 -99 -2 -8 -8 -28 -14 -43 -25 -61
-6 -163 40 -217 77 -91 225 -99 313 -17 66 63 87 144 60 234 -15 48 -63 113
-84 113 -6 0 -11 3 -11 8 0 10 -75 32 -107 31 -16 -1 -46 -5 -68 -10z m153
-116 c13 -13 29 -38 37 -56 19 -47 -7 -123 -54 -154 -123 -83 -267 79 -174
195 53 65 137 72 191 15z"/>
<path d="M5850 2213 c-37 -11 -68 -30 -101 -63 -134 -132 -45 -364 143 -371
75 -3 120 13 168 61 58 58 78 164 45 242 -18 44 -76 104 -113 120 -28 12 -117
19 -142 11z m116 -93 c9 0 43 -41 48 -57 4 -13 10 -23 14 -23 4 0 6 -15 5 -32
-1 -18 -2 -41 -2 -50 -1 -28 -59 -86 -92 -93 -63 -14 -149 26 -149 70 0 8 -4
15 -9 15 -7 0 -8 81 -1 88 1 1 3 5 4 10 0 4 10 20 21 35 26 36 88 58 129 46
17 -5 31 -9 32 -9z"/>
<path d="M6330 2206 c-19 -7 -43 -17 -53 -21 -13 -5 -17 -3 -15 6 2 10 -9 14
-39 15 -25 1 -43 -4 -44 -10 -4 -45 -3 -399 1 -404 6 -8 79 -10 81 -2 1 3 2
59 3 125 1 72 7 132 14 151 16 39 76 73 117 67 28 -4 88 -53 65 -53 -7 0 -8
-6 -2 -17 4 -10 8 -74 7 -141 -1 -142 2 -147 83 -133 4 0 6 45 6 98 -3 227 -9
253 -70 299 -41 32 -104 40 -154 20z"/>
<path d="M4863 2198 c2 -7 0 -23 -4 -35 -5 -14 -4 -23 3 -25 8 -3 8 -10 1 -22
-5 -10 -7 -37 -3 -61 4 -27 3 -48 -4 -55 -6 -6 -6 -10 0 -10 5 0 10 -18 11
-41 4 -105 83 -180 183 -174 117 7 179 68 184 180 1 22 5 46 9 53 5 6 4 12 0
12 -11 0 -10 90 0 107 4 6 4 14 -1 17 -5 3 -7 18 -6 34 2 28 0 30 -42 30 l-44
1 -1 -127 c-1 -165 -1 -168 -29 -192 -48 -42 -117 -36 -153 11 -17 23 -19 45
-21 165 l-1 139 -43 3 c-33 2 -43 -1 -39 -10z"/>
<path d="M5550 2153 c-2 -162 1 -358 6 -362 2 -2 21 -5 42 -6 l38 -1 -1 48 c0
26 3 48 8 48 4 0 5 6 0 13 -11 18 -10 91 2 99 7 5 7 8 0 8 -11 0 -12 110 -1
128 4 7 3 12 -1 12 -5 0 -8 15 -8 33 0 31 -2 32 -42 35 l-43 3 0 -58z"/>
</g>
</svg>
